# xmcd
#
# Track frame offsets: 
#        150
#        14054
#        36632
#        60783
#        83303
#        106909
#        117251
#        138971
#        152083
#        174369
#        191287
#        227672
#        252483
#        280164
#        294213
#
# Disc length: 4256 seconds
#
# Revision: 1
# Processed by: cddbd v1.5.2PL0 Copyright (c) Steve Scherf et al.
# Submitted via: ExactAudioCopy v1.3
#
DISCID=be109e0f
DTITLE=Martinelli (Ot), Tibbett (Jago), Roman (Desd.) - Panizza, Orches
DTITLE=ter Met - 1941 - Otello - Panizza, Martinelli, Met 41 - CD2 (Ca
DTITLE=ntus)
DYEAR=1941
DGENRE=Oper
TTITLE0=AKT3 - La Vedetta Del Porto Ha Segnalato
TTITLE1=Dio Ti Giocondi Os Sposia
TTITLE2=Esterrefatta Isso La Sguardo Tuo Tremendo
TTITLE3=Dio Mi Petovi Scagliar Tutti I Mali
TTITLE4=Venni L' Aura E Deserta
TTITLE5=Quest' E Il Sgnale
TTITLE6=Il Doge Ed Il Senato Salutano L' Oroe
TTITLE7=A Terra E Pianfi
TTITLE8=Quella Innoccenti Un Fremito
TTITLE9=AKT4 - Ere Piu Calmo
TTITLE10=Mia Madre Aveva Na Overa Ancella
TTITLE11=Ave Maria Piena Di Garzia
TTITLE12=Che E La 
TTITLE13=Apriti Aprite
TTITLE14=Niun Mi Tema S' Anco Cirmato Mi Vede
EXTD=
EXTT0=
EXTT1=
EXTT2=
EXTT3=
EXTT4=
EXTT5=
EXTT6=
EXTT7=
EXTT8=
EXTT9=
EXTT10=
EXTT11=
EXTT12=
EXTT13=
EXTT14=
PLAYORDER=
